# xmcd
#
# Track frame offsets:
#	150
#	20328
#	35012
#	54232
#	71128
#	87817
#	105658
#	119954
#	137201
#	155514
#	171378
#	188617
#
# Disc length: 2719 seconds
#
# Revision: 1
# Processed by: cddbd v1.5.2PL0 Copyright (c) Steve Scherf et al.
# Submitted via: audiograbber 1.83.01
#
DISCID=a80a9d0c
DTITLE=Billy Ray Cyrus - The Best Of Billy Ray Cyrus - Cover To Cover
DYEAR=1997
DGENRE=Country
TTITLE0=It's All The Same To Me
TTITLE1=Cover To Cover
TTITLE2=Bluegrass State Of Mind
TTITLE3=Trail Of Tears
TTITLE4=One Last Thrill
TTITLE5=Storm In The Heartland
TTITLE6=Words By Heart
TTITLE7=Somebody New
TTITLE8=In The Heart Of A Women
TTITLE9=She's Not Cryin' Anymore
TTITLE10=Could've Been Me
TTITLE11=Achy Breaky Heart
EXTD=
EXTT0=
EXTT1=
EXTT2=
EXTT3=
EXTT4=
EXTT5=
EXTT6=
EXTT7=
EXTT8=
EXTT9=
EXTT10=
EXTT11=
PLAYORDER=
